<svg xmlns="http://www.w3.org/2000/svg" xmlns:xlink="http://www.w3.org/1999/xlink" contentStyleType="text/css" data-diagram-type="DESCRIPTION" height="1103px" preserveAspectRatio="none" style="width:735px;height:1103px;background:#FAFBFD;" version="1.1" viewBox="0 0 735 1103" width="735px" zoomAndPan="magnify"><?plantuml 1.2026.3beta5?><defs/><g><rect fill="#FAFBFD" height="1103" style="stroke:none;stroke-width:1;" width="735" x="0" y="0"/><!--cluster IamUNSRI ? Perusahaan Domain--><g class="cluster" data-qualified-name="IamUNSRI . Perusahaan Domain" data-source-line="62" id="ent0003"><rect fill="#F8F9FA" height="1021" rx="8" ry="8" style="stroke:#CFD8DC;stroke-width:1.5;" width="618.57" x="102.57" y="7"/><text fill="#263238" font-family="'Segoe UI'" font-size="14" font-weight="700" lengthAdjust="spacing" textLength="260.2988" x="281.7056" y="21.9951">IamUNSRI &#8212; Perusahaan Domain</text></g><!--cluster Autentikasi--><g class="cluster" data-qualified-name="IamUNSRI . Perusahaan Domain.Autentikasi" data-source-line="64" id="ent0004"><rect fill="#F8F9FA" height="199" rx="8" ry="8" style="stroke:#CFD8DC;stroke-width:1.5;" width="154.79" x="140.83" y="805"/><text fill="#263238" font-family="'Segoe UI'" font-size="14" font-weight="700" lengthAdjust="spacing" textLength="90.3369" x="173.0565" y="819.9951">Autentikasi</text></g><!--cluster Profil Perusahaan--><g class="cluster" data-qualified-name="IamUNSRI . Perusahaan Domain.Profil Perusahaan" data-source-line="70" id="ent0008"><rect fill="#F8F9FA" height="154" rx="8" ry="8" style="stroke:#CFD8DC;stroke-width:1.5;" width="180.11" x="128.17" y="627"/><text fill="#263238" font-family="'Segoe UI'" font-size="14" font-weight="700" lengthAdjust="spacing" textLength="140.5811" x="147.9345" y="641.9951">Profil Perusahaan</text></g><!--cluster Kelola Lowongan--><g class="cluster" data-qualified-name="IamUNSRI . Perusahaan Domain.Kelola Lowongan" data-source-line="75" id="ent0011"><rect fill="#F8F9FA" height="275" rx="8" ry="8" style="stroke:#CFD8DC;stroke-width:1.5;" width="171.75" x="132.35" y="328"/><text fill="#263238" font-family="'Segoe UI'" font-size="14" font-weight="700" lengthAdjust="spacing" textLength="134.374" x="151.038" y="342.9951">Kelola Lowongan</text></g><!--cluster Kelola Pelamar--><g class="cluster" data-qualified-name="IamUNSRI . Perusahaan Domain.Kelola Pelamar" data-source-line="82" id="ent0016"><rect fill="#F8F9FA" height="155" rx="8" ry="8" style="stroke:#CFD8DC;stroke-width:1.5;" width="570.57" x="126.57" y="149"/><text fill="#263238" font-family="'Segoe UI'" font-size="14" font-weight="700" lengthAdjust="spacing" textLength="118.8223" x="352.4439" y="163.9951">Kelola Pelamar</text></g><!--cluster Utilitas--><g class="cluster" data-qualified-name="IamUNSRI . Perusahaan Domain.Utilitas" data-source-line="89" id="ent0021"><rect fill="#F8F9FA" height="75" rx="8" ry="8" style="stroke:#CFD8DC;stroke-width:1.5;" width="124.61" x="155.92" y="50"/><text fill="#263238" font-family="'Segoe UI'" font-size="14" font-weight="700" lengthAdjust="spacing" textLength="56.9297" x="189.7602" y="64.9951">Utilitas</text></g><!--entity UC_LOGIN--><g class="entity" data-qualified-name="IamUNSRI . Perusahaan Domain.Autentikasi.UC_LOGIN" data-source-line="65" id="ent0005"><ellipse cx="218.2303" cy="976.0043" fill="#F5F5F5" rx="24.1203" ry="12.0543" style="stroke:#90A4AE;stroke-width:1.2;"/><text fill="#37474F" font-family="'Segoe UI'" font-size="11" lengthAdjust="spacing" textLength="29.8687" x="203.296" y="978.9066">Login</text></g><!--entity UC_CHANGE_PW--><g class="entity" data-qualified-name="IamUNSRI . Perusahaan Domain.Autentikasi.UC_CHANGE_PW" data-source-line="66" id="ent0006"><ellipse cx="218.2255" cy="913.9991" fill="#F5F5F5" rx="61.3955" ry="14.6791" style="stroke:#90A4AE;stroke-width:1.2;"/><text fill="#37474F" font-family="'Segoe UI'" font-size="11" lengthAdjust="spacing" textLength="97.6787" x="169.3861" y="916.9014">Change Password</text></g><!--entity UC_LOGOUT--><g class="entity" data-qualified-name="IamUNSRI . Perusahaan Domain.Autentikasi.UC_LOGOUT" data-source-line="67" id="ent0007"><ellipse cx="218.2279" cy="852.0043" fill="#F5F5F5" rx="29.7679" ry="12.0543" style="stroke:#90A4AE;stroke-width:1.2;"/><text fill="#37474F" font-family="'Segoe UI'" font-size="11" lengthAdjust="spacing" textLength="37.8555" x="199.3001" y="854.9066">Logout</text></g><!--entity UC_COMP_VIEW--><g class="entity" data-qualified-name="IamUNSRI . Perusahaan Domain.Profil Perusahaan.UC_COMP_VIEW" data-source-line="71" id="ent0009"><ellipse cx="218.2324" cy="748.0005" fill="#F5F5F5" rx="74.0524" ry="17.2105" style="stroke:#90A4AE;stroke-width:1.2;"/><text fill="#37474F" font-family="'Segoe UI'" font-size="11" lengthAdjust="spacing" textLength="126.8652" x="154.7998" y="750.9028">Lihat Profil Perusahaan</text></g><!--entity UC_COMP_EDIT--><g class="entity" data-qualified-name="IamUNSRI . Perusahaan Domain.Profil Perusahaan.UC_COMP_EDIT" data-source-line="72" id="ent0010"><ellipse cx="218.2281" cy="678.9956" fill="#F5F5F5" rx="71.4281" ry="16.6856" style="stroke:#90A4AE;stroke-width:1.2;"/><text fill="#37474F" font-family="'Segoe UI'" font-size="11" lengthAdjust="spacing" textLength="120.957" x="157.7496" y="681.898">Edit Profil Perusahaan</text></g><!--entity UC_JOB_LIST--><g class="entity" data-qualified-name="IamUNSRI . Perusahaan Domain.Kelola Lowongan.UC_JOB_LIST" data-source-line="76" id="ent0012"><ellipse cx="218.2337" cy="571.0047" fill="#F5F5F5" rx="69.8737" ry="16.3747" style="stroke:#90A4AE;stroke-width:1.2;"/><text fill="#37474F" font-family="'Segoe UI'" font-size="11" lengthAdjust="spacing" textLength="117.4282" x="159.5196" y="573.9071">Lihat Lowongan Saya</text></g><!--entity UC_JOB_CREATE--><g class="entity" data-qualified-name="IamUNSRI . Perusahaan Domain.Kelola Lowongan.UC_JOB_CREATE" data-source-line="77" id="ent0013"><ellipse cx="218.2269" cy="503.9954" fill="#F5F5F5" rx="64.3269" ry="15.2654" style="stroke:#90A4AE;stroke-width:1.2;"/><text fill="#37474F" font-family="'Segoe UI'" font-size="11" lengthAdjust="spacing" textLength="104.6182" x="165.9178" y="506.8977">Tambah Lowongan</text></g><!--entity UC_JOB_EDIT--><g class="entity" data-qualified-name="IamUNSRI . Perusahaan Domain.Kelola Lowongan.UC_JOB_EDIT" data-source-line="78" id="ent0014"><ellipse cx="218.2332" cy="439.9986" fill="#F5F5F5" rx="54.6432" ry="13.3286" style="stroke:#90A4AE;stroke-width:1.2;"/><text fill="#37474F" font-family="'Segoe UI'" font-size="11" lengthAdjust="spacing" textLength="81.0498" x="177.7083" y="442.901">Edit Lowongan</text></g><!--entity UC_JOB_DELETE--><g class="entity" data-qualified-name="IamUNSRI . Perusahaan Domain.Kelola Lowongan.UC_JOB_DELETE" data-source-line="79" id="ent0015"><ellipse cx="218.2302" cy="377" fill="#F5F5F5" rx="60.0502" ry="14.41" style="stroke:#90A4AE;stroke-width:1.2;"/><text fill="#37474F" font-family="'Segoe UI'" font-size="11" lengthAdjust="spacing" textLength="94.4453" x="171.0076" y="379.9024">Hapus Lowongan</text></g><!--entity UC_APP_LIST--><g class="entity" data-qualified-name="IamUNSRI . Perusahaan Domain.Kelola Pelamar.UC_APP_LIST" data-source-line="83" id="ent0017"><ellipse cx="218.231" cy="271.0042" fill="#F5F5F5" rx="71.421" ry="16.6842" style="stroke:#90A4AE;stroke-width:1.2;"/><text fill="#37474F" font-family="'Segoe UI'" font-size="11" lengthAdjust="spacing" textLength="120.9409" x="157.7605" y="273.9065">Lihat Semua Lamaran</text></g><!--entity UC_APP_DETAIL--><g class="entity" data-qualified-name="IamUNSRI . Perusahaan Domain.Kelola Pelamar.UC_APP_DETAIL" data-source-line="84" id="ent0018"><ellipse cx="429.7133" cy="201.9967" fill="#F5F5F5" rx="68.8833" ry="16.1767" style="stroke:#90A4AE;stroke-width:1.2;"/><text fill="#37474F" font-family="'Segoe UI'" font-size="11" lengthAdjust="spacing" textLength="115.167" x="372.1298" y="204.899">Lihat Detail Lamaran</text></g><!--entity UC_APP_PER_JOB--><g class="entity" data-qualified-name="IamUNSRI . Perusahaan Domain.Kelola Pelamar.UC_APP_PER_JOB" data-source-line="85" id="ent0019"><ellipse cx="623.3474" cy="235.9966" fill="#F5F5F5" rx="57.7974" ry="20.9866" style="stroke:#90A4AE;stroke-width:1.2;"/><text fill="#37474F" font-family="'Segoe UI'" font-size="11" lengthAdjust="spacing" textLength="75.8828" x="585.406" y="232.3236">Lihat Pelamar</text><text fill="#37474F" font-family="'Segoe UI'" font-size="11" lengthAdjust="spacing" textLength="78.0205" x="584.3371" y="245.1283">per Lowongan</text></g><!--entity UC_APP_STATUS--><g class="entity" data-qualified-name="IamUNSRI . Perusahaan Domain.Kelola Pelamar.UC_APP_STATUS" data-source-line="86" id="ent0020"><ellipse cx="218.2337" cy="202.0007" fill="#F5F5F5" rx="75.6537" ry="17.5307" style="stroke:#90A4AE;stroke-width:1.2;"/><text fill="#37474F" font-family="'Segoe UI'" font-size="11" lengthAdjust="spacing" textLength="130.4424" x="153.0125" y="204.9031">Update Status Lamaran</text></g><!--entity UC_UPLOAD--><g class="entity" data-qualified-name="IamUNSRI . Perusahaan Domain.Utilitas.UC_UPLOAD" data-source-line="90" id="ent0022"><ellipse cx="218.2279" cy="97.0043" fill="#F5F5F5" rx="46.3079" ry="12.0543" style="stroke:#90A4AE;stroke-width:1.2;"/><text fill="#37474F" font-family="'Segoe UI'" font-size="11" lengthAdjust="spacing" textLength="61.2466" x="187.6046" y="99.9066">Upload File</text></g><!--entity COMPANY--><g class="entity" data-qualified-name="COMPANY" data-source-line="60" id="ent0002"><ellipse cx="44.2859" cy="516.43" fill="#E8EAF6" rx="16" ry="16" style="stroke:#5C6BC0;stroke-width:0.5;"/><path d="M44.2859,536.43 C48.2859,536.43 51.2859,536.43 55.2859,532.43 C63.2859,532.43 71.2859,540.43 71.2859,548.43 L71.2859,552.43 C71.2859,556.43 67.2859,560.43 63.2859,560.43 L25.2859,560.43 C21.2859,560.43 17.2859,556.43 17.2859,552.43 L17.2859,548.43 C17.2859,540.43 25.2859,532.43 33.2859,532.43 C37.2859,536.43 40.2859,536.43 44.2859,536.43" fill="#E8EAF6" style="stroke:#5C6BC0;stroke-width:0.5;"/><text fill="#283593" font-family="'Segoe UI'" font-size="13" lengthAdjust="spacing" textLength="76.5718" x="6" y="572.9969">Perusahaan</text></g><g class="entity" data-qualified-name="GMN39" data-source-line="117" id="ent0040"><path d="M353.88,1049.54 L353.88,1082.4619 A6,6 0 0 0 359.88,1088.4619 L499.5489,1088.4619 A6,6 0 0 0 505.5489,1082.4619 L505.5489,1053.54 L495.5489,1043.54 L359.88,1043.54 A6,6 0 0 0 353.88,1049.54" fill="#FFF8E1" style="stroke:#FFD54F;stroke-width:0.5;"/><path d="M495.5489,1043.54 L495.5489,1050.54 A3,3 0 0 0 498.5489,1053.54 L505.5489,1053.54 L495.5489,1043.54" fill="#FFF8E1" style="stroke:#FFD54F;stroke-width:1;"/><text fill="#5D4037" font-family="'Segoe UI'" font-size="10" lengthAdjust="spacing" textLength="116.5723" x="359.88" y="1057.8222">Perusahaan hanya bisa</text><text fill="#5D4037" font-family="'Segoe UI'" font-size="10" lengthAdjust="spacing" textLength="119.6436" x="359.88" y="1069.4629">mengelola pelamar dari</text><text fill="#5D4037" font-family="'Segoe UI'" font-size="10" lengthAdjust="spacing" textLength="130.6689" x="359.88" y="1081.1035">lowongan miliknya sendiri</text></g><!--link COMPANY to UC_LOGIN--><g class="link" data-entity-1="ent0002" data-entity-2="ent0005" data-link-type="dependency" data-source-line="94" id="lnk23"><path d="M19.14,576.48 C19.14,683.36 19.14,976 19.14,976 C19.14,976 134.65,976 187.81,976" fill="none" id="COMPANY-to-UC_LOGIN" style="stroke:#78909C;stroke-width:1.2;"/><polygon fill="#78909C" points="193.81,976,184.81,972,188.81,976,184.81,980,193.81,976" style="stroke:#78909C;stroke-width:1.2;"/></g><!--link COMPANY to UC_CHANGE_PW--><g class="link" data-entity-1="ent0002" data-entity-2="ent0006" data-link-type="dependency" data-source-line="95" id="lnk24"><path d="M32.14,576.47 C32.14,672.3 32.14,914 32.14,914 C32.14,914 96.35,914 150.52,914" fill="none" id="COMPANY-to-UC_CHANGE_PW" style="stroke:#78909C;stroke-width:1.2;"/><polygon fill="#78909C" points="156.52,914,147.52,910,151.52,914,147.52,918,156.52,914" style="stroke:#78909C;stroke-width:1.2;"/></g><!--link COMPANY to UC_LOGOUT--><g class="link" data-entity-1="ent0002" data-entity-2="ent0007" data-link-type="dependency" data-source-line="96" id="lnk25"><path d="M45.14,576.5 C45.14,660.35 45.14,852 45.14,852 C45.14,852 132.49,852 182.08,852" fill="none" id="COMPANY-to-UC_LOGOUT" style="stroke:#78909C;stroke-width:1.2;"/><polygon fill="#78909C" points="188.08,852,179.08,848,183.08,852,179.08,856,188.08,852" style="stroke:#78909C;stroke-width:1.2;"/></g><!--link COMPANY to UC_COMP_VIEW--><g class="link" data-entity-1="ent0002" data-entity-2="ent0009" data-link-type="dependency" data-source-line="98" id="lnk26"><path d="M57.14,576.52 C57.14,637.14 57.14,748 57.14,748 C57.14,748 95.61,748 137.81,748" fill="none" id="COMPANY-to-UC_COMP_VIEW" style="stroke:#78909C;stroke-width:1.2;"/><polygon fill="#78909C" points="143.81,748,134.81,744,138.81,748,134.81,752,143.81,748" style="stroke:#78909C;stroke-width:1.2;"/></g><!--link COMPANY to UC_COMP_EDIT--><g class="link" data-entity-1="ent0002" data-entity-2="ent0010" data-link-type="dependency" data-source-line="99" id="lnk27"><path d="M70.14,576.53 C70.14,618.28 70.14,679 70.14,679 C70.14,679 102.62,679 140.35,679" fill="none" id="COMPANY-to-UC_COMP_EDIT" style="stroke:#78909C;stroke-width:1.2;"/><polygon fill="#78909C" points="146.35,679,137.35,675,141.35,679,137.35,683,146.35,679" style="stroke:#78909C;stroke-width:1.2;"/></g><!--link COMPANY to UC_JOB_LIST--><g class="link" data-entity-1="ent0002" data-entity-2="ent0012" data-link-type="dependency" data-source-line="101" id="lnk28"><path d="M82.89,565.34 C103.21,565.34 122.69,565.34 146.04,565.34" fill="none" id="COMPANY-to-UC_JOB_LIST" style="stroke:#78909C;stroke-width:1.2;"/><polygon fill="#78909C" points="152.04,565.34,143.04,561.34,147.04,565.34,143.04,569.34,152.04,565.34" style="stroke:#78909C;stroke-width:1.2;"/></g><!--link COMPANY to UC_JOB_CREATE--><g class="link" data-entity-1="ent0002" data-entity-2="ent0013" data-link-type="dependency" data-source-line="102" id="lnk29"><path d="M82.89,509.6 C104.91,509.6 126.99,509.6 151.86,509.6" fill="none" id="COMPANY-to-UC_JOB_CREATE" style="stroke:#78909C;stroke-width:1.2;"/><polygon fill="#78909C" points="157.86,509.6,148.86,505.6,152.86,509.6,148.86,513.6,157.86,509.6" style="stroke:#78909C;stroke-width:1.2;"/></g><!--link COMPANY to UC_JOB_EDIT--><g class="link" data-entity-1="ent0002" data-entity-2="ent0014" data-link-type="dependency" data-source-line="103" id="lnk30"><path d="M72.14,499.55 C72.14,472.09 72.14,440 72.14,440 C72.14,440 115.96,440 157.41,440" fill="none" id="COMPANY-to-UC_JOB_EDIT" style="stroke:#78909C;stroke-width:1.2;"/><polygon fill="#78909C" points="163.41,440,154.41,436,158.41,440,154.41,444,163.41,440" style="stroke:#78909C;stroke-width:1.2;"/></g><!--link COMPANY to UC_JOB_DELETE--><g class="link" data-entity-1="ent0002" data-entity-2="ent0015" data-link-type="dependency" data-source-line="104" id="lnk31"><path d="M61.14,499.44 C61.14,451.81 61.14,377 61.14,377 C61.14,377 107.64,377 151.94,377" fill="none" id="COMPANY-to-UC_JOB_DELETE" style="stroke:#78909C;stroke-width:1.2;"/><polygon fill="#78909C" points="157.94,377,148.94,373,152.94,377,148.94,381,157.94,377" style="stroke:#78909C;stroke-width:1.2;"/></g><!--link COMPANY to UC_APP_LIST--><g class="link" data-entity-1="ent0002" data-entity-2="ent0017" data-link-type="dependency" data-source-line="106" id="lnk32"><path d="M50.14,499.46 C50.14,425.52 50.14,271 50.14,271 C50.14,271 94.77,271 140.46,271" fill="none" id="COMPANY-to-UC_APP_LIST" style="stroke:#78909C;stroke-width:1.2;"/><polygon fill="#78909C" points="146.46,271,137.46,267,141.46,271,137.46,275,146.46,271" style="stroke:#78909C;stroke-width:1.2;"/></g><!--link COMPANY to UC_APP_DETAIL--><g class="link" data-entity-1="ent0002" data-entity-2="ent0018" data-link-type="dependency" data-source-line="107" id="lnk33"><path d="M83.05,536.94 C180.9,536.94 430.14,536.94 430.14,536.94 C430.14,536.94 430.14,292.19 430.14,224.61" fill="none" id="COMPANY-to-UC_APP_DETAIL" style="stroke:#78909C;stroke-width:1.2;"/><polygon fill="#78909C" points="430.14,218.61,426.14,227.61,430.14,223.61,434.14,227.61,430.14,218.61" style="stroke:#78909C;stroke-width:1.2;"/></g><!--link COMPANY to UC_APP_PER_JOB--><g class="link" data-entity-1="ent0002" data-entity-2="ent0019" data-link-type="dependency" data-source-line="108" id="lnk34"><path d="M39.14,499.56 C39.14,418.4 39.14,236.92 39.14,236.92 C39.14,236.92 411.43,236.92 559.19,236.92" fill="none" id="COMPANY-to-UC_APP_PER_JOB" style="stroke:#78909C;stroke-width:1.2;"/><polygon fill="#78909C" points="565.19,236.92,556.19,232.92,560.19,236.92,556.19,240.92,565.19,236.92" style="stroke:#78909C;stroke-width:1.2;"/></g><!--link COMPANY to UC_APP_STATUS--><g class="link" data-entity-1="ent0002" data-entity-2="ent0020" data-link-type="dependency" data-source-line="109" id="lnk35"><path d="M28.14,499.46 C28.14,411.2 28.14,202 28.14,202 C28.14,202 83.33,202 136.28,202" fill="none" id="COMPANY-to-UC_APP_STATUS" style="stroke:#78909C;stroke-width:1.2;"/><polygon fill="#78909C" points="142.28,202,133.28,198,137.28,202,133.28,206,142.28,202" style="stroke:#78909C;stroke-width:1.2;"/></g><!--link COMPANY to UC_UPLOAD--><g class="link" data-entity-1="ent0002" data-entity-2="ent0022" data-link-type="dependency" data-source-line="111" id="lnk36"><path d="M17.14,499.63 C17.14,392.34 17.14,97 17.14,97 C17.14,97 106.19,97 165.59,97" fill="none" id="COMPANY-to-UC_UPLOAD" style="stroke:#78909C;stroke-width:1.2;"/><polygon fill="#78909C" points="171.59,97,162.59,93,166.59,97,162.59,101,171.59,97" style="stroke:#78909C;stroke-width:1.2;"/></g><!--link UC_APP_STATUS to UC_APP_DETAIL--><g class="link" data-entity-1="ent0020" data-entity-2="ent0018" data-link-type="dependency" data-source-line="113" id="lnk37"><path d="M290.71,196.61 C314.51,196.61 334.8,196.61 358.06,196.61" fill="none" id="UC_APP_STATUS-to-UC_APP_DETAIL" style="stroke:#78909C;stroke-width:1.2;stroke-dasharray:7,7;"/><polygon fill="#78909C" points="364.06,196.61,355.06,192.61,359.06,196.61,355.06,200.61,364.06,196.61" style="stroke:#78909C;stroke-width:1.2;"/><text fill="#546E7A" font-family="'Segoe UI'" font-size="10" lengthAdjust="spacing" textLength="52.2754" x="328.39" y="193.8922">&#171;extends&#187;</text></g><!--link UC_APP_DETAIL to UC_APP_PER_JOB--><g class="link" data-entity-1="ent0018" data-entity-2="ent0019" data-link-type="dependency" data-source-line="114" id="lnk38"><path d="M498.54,200.42 C554.47,200.42 624.14,200.42 624.14,200.42 C624.14,200.42 624.14,201.23 624.14,208.89" fill="none" id="UC_APP_DETAIL-to-UC_APP_PER_JOB" style="stroke:#78909C;stroke-width:1.2;stroke-dasharray:7,7;"/><polygon fill="#78909C" points="624.14,214.89,628.14,205.89,624.14,209.89,620.14,205.89,624.14,214.89" style="stroke:#78909C;stroke-width:1.2;"/><text fill="#546E7A" font-family="'Segoe UI'" font-size="10" lengthAdjust="spacing" textLength="52.2754" x="515.58" y="210.7022">&#171;extends&#187;</text></g><!--link UC_APP_STATUS to GMN39--><g class="link" data-entity-1="ent0020" data-entity-2="ent0040" data-link-type="association" data-source-line="117" id="lnk41"><path d="M290.63,207.39 C309.25,207.39 324.14,207.39 324.14,207.39 C324.14,207.39 324.14,1066 324.14,1066 C324.14,1066 336.9,1066 353.55,1066" fill="none" id="UC_APP_STATUS-GMN39" style="stroke:#78909C;stroke-width:1.2;stroke-dasharray:7,7;"/></g><?plantuml-src XLNRZjem47tFLrZfywwuNwhLIY6NBIs5Y91MbIgXWHYmIE8eDg9qjL8_eb_OBwaJ0YIEqS83ofmpSyvaneRjIPn02X5QmNg_JUaX3amQqXHzS0ndv5WQkp82l853o1qQyob46EaUtbAC_B6k9ddaDqRDLWbaEmZeaSHRj86GuH8IaXZpKu8HJVcEbe32KHhZDAjLGc3DXSrN3Q6HRDqUs8RJon2Q1ZWjebspDp8R8fgPAsAjGRixR1Uni-7ioUEd42CuOaOZhBsLPGyChu5XjR3JpRwoyB1XT0oxAjpkT_eTvyfSxCXw7sF6KFEnLR7JhCgdUCqXteRt3EGVsS2eCRBDhjHvhzrg3ofIdSjJtlsAXe7INrPeNXvBhsen4QPWUy_Wm1awXcpGTAo1PLODThfTezUfZUPzWzVvNTzLrH-aAJtcxWgb_c3O64hgtKxFxXiLzMnrgdEgb8qflp-KWTsKUtOSgvjlG5dLwZJQVKbLg8Humn6dA2NR7KS1oJeZDDQqyo7GNPmU6Em0OXq1G-RigsjCVsZQRLlqCKJ-r9kFqRy_Vz6DZomQ0H5fhvgGlOnEDmuSnvpiWH4zRmfT5r-Vq2qvw_ZcSZ9x6K-hkBaJaXYvmDXHD7nXcf-CwOkzTB_Ngj43BvMR-Gl1UAlOSLEw8I4gjocR8ZlWIC4hnCKRMNuRsvAu7P3tacnhNFVp1OSq13IXHnflxxgvmCY34roAVfwDbfEnjwWcB21QmQvKy4OsvxQni1M-LUJ2ROdw2P83Kt8jUsBdXPMzkJY42D8xhNauEeZ-CyQjgE6wYjRE2HRc85wo8iEo5yPuefpcsSBFE16tZDn1bkhQywoJQgwV121EeiU1PutN1Rs5iV2zMjy-9o7Xm6eT-qb88K0E2V6bZEzEPeQLbn15YkE67XwURqT22jwslyxEDhx6lowi2iZ7B2FNpLB4YoLI87afHRpO3XcwpbWHBoQfG2w3Ka35D6IeUCDQXOKU7oKnz14zFU5Vuh8AsFEpLiLAxCA0HDVoE_jygT9DRJzAjwIuqaw0LeI1Y4TOt6_v8KdE6ue2I8a0mik1ZyGgxRCC9fI8mCHF_WVn7m00?></g></svg>