<svg xmlns="http://www.w3.org/2000/svg" xmlns:xlink="http://www.w3.org/1999/xlink" contentStyleType="text/css" data-diagram-type="DESCRIPTION" height="2928px" preserveAspectRatio="none" style="width:581px;height:2928px;background:#FAFBFD;" version="1.1" viewBox="0 0 581 2928" width="581px" zoomAndPan="magnify"><?plantuml 1.2026.3beta5?><defs/><g><rect fill="#FAFBFD" height="2928" style="stroke:none;stroke-width:1;" width="581" x="0" y="0"/><!--cluster IamUNSRI ? Admin Domain--><g class="cluster" data-qualified-name="IamUNSRI . Admin Domain" data-source-line="65" id="ent0003"><rect fill="#F8F9FA" height="2907" rx="8" ry="8" style="stroke:#CFD8DC;stroke-width:1.5;" width="507.29" x="60" y="7"/><text fill="#263238" font-family="'Segoe UI'" font-size="14" font-weight="700" lengthAdjust="spacing" textLength="217.2734" x="205.0083" y="21.9951">IamUNSRI &#8212; Admin Domain</text></g><!--cluster Manajemen User--><g class="cluster" data-qualified-name="IamUNSRI . Admin Domain.Manajemen User" data-source-line="67" id="ent0004"><rect fill="#F8F9FA" height="326" rx="8" ry="8" style="stroke:#CFD8DC;stroke-width:1.5;" width="169.93" x="101.21" y="2564"/><text fill="#263238" font-family="'Segoe UI'" font-size="14" font-weight="700" lengthAdjust="spacing" textLength="132.1113" x="120.1193" y="2578.9951">Manajemen User</text></g><!--cluster RBAC--><g class="cluster" data-qualified-name="IamUNSRI . Admin Domain.RBAC" data-source-line="75" id="ent0010"><rect fill="#F8F9FA" height="279" rx="8" ry="8" style="stroke:#CFD8DC;stroke-width:1.5;" width="195.35" x="88.5" y="2261"/><text fill="#263238" font-family="'Segoe UI'" font-size="14" font-weight="700" lengthAdjust="spacing" textLength="42.5605" x="164.8947" y="2275.9951">RBAC</text></g><!--cluster Verifikasi--><g class="cluster" data-qualified-name="IamUNSRI . Admin Domain.Verifikasi" data-source-line="82" id="ent0015"><rect fill="#F8F9FA" height="144" rx="8" ry="8" style="stroke:#CFD8DC;stroke-width:1.5;" width="435.57" x="107.72" y="1354"/><text fill="#263238" font-family="'Segoe UI'" font-size="14" font-weight="700" lengthAdjust="spacing" textLength="74.8125" x="288.0988" y="1368.9951">Verifikasi</text></g><!--cluster Manajemen Lowongan--><g class="cluster" data-qualified-name="IamUNSRI . Admin Domain.Manajemen Lowongan" data-source-line="88" id="ent0019"><rect fill="#F8F9FA" height="347" rx="8" ry="8" style="stroke:#CFD8DC;stroke-width:1.5;" width="428.19" x="94.52" y="1890"/><text fill="#263238" font-family="'Segoe UI'" font-size="14" font-weight="700" lengthAdjust="spacing" textLength="176.5039" x="220.363" y="1904.9951">Manajemen Lowongan</text></g><!--cluster Manajemen Kegiatan--><g class="cluster" data-qualified-name="IamUNSRI . Admin Domain.Manajemen Kegiatan" data-source-line="97" id="ent0026"><rect fill="#F8F9FA" height="344" rx="8" ry="8" style="stroke:#CFD8DC;stroke-width:1.5;" width="429.49" x="91.82" y="1522"/><text fill="#263238" font-family="'Segoe UI'" font-size="14" font-weight="700" lengthAdjust="spacing" textLength="166.7285" x="223.2007" y="1536.9951">Manajemen Kegiatan</text></g><!--cluster Manajemen Konten--><g class="cluster" data-qualified-name="IamUNSRI . Admin Domain.Manajemen Konten" data-source-line="106" id="ent0033"><rect fill="#F8F9FA" height="143" rx="8" ry="8" style="stroke:#CFD8DC;stroke-width:1.5;" width="167.33" x="103.01" y="1187"/><text fill="#263238" font-family="'Segoe UI'" font-size="14" font-weight="700" lengthAdjust="spacing" textLength="152.5986" x="110.3757" y="1201.9951">Manajemen Konten</text></g><!--cluster Manajemen Voucher--><g class="cluster" data-qualified-name="IamUNSRI . Admin Domain.Manajemen Voucher" data-source-line="111" id="ent0036"><rect fill="#F8F9FA" height="326" rx="8" ry="8" style="stroke:#CFD8DC;stroke-width:1.5;" width="176.65" x="98.35" y="837"/><text fill="#263238" font-family="'Segoe UI'" font-size="14" font-weight="700" lengthAdjust="spacing" textLength="161.0957" x="106.1271" y="851.9951">Manajemen Voucher</text></g><!--cluster Manajemen Perusahaan--><g class="cluster" data-qualified-name="IamUNSRI . Admin Domain.Manajemen Perusahaan" data-source-line="119" id="ent0042"><rect fill="#F8F9FA" height="87" rx="8" ry="8" style="stroke:#CFD8DC;stroke-width:1.5;" width="204.35" x="84" y="726"/><text fill="#263238" font-family="'Segoe UI'" font-size="14" font-weight="700" lengthAdjust="spacing" textLength="189.2461" x="91.552" y="740.9951">Manajemen Perusahaan</text></g><!--cluster IKA & Alumni--><g class="cluster" data-qualified-name="IamUNSRI . Admin Domain.IKA . Alumni" data-source-line="123" id="ent0044"><rect fill="#F8F9FA" height="140" rx="8" ry="8" style="stroke:#CFD8DC;stroke-width:1.5;" width="421.22" x="104.37" y="562"/><text fill="#263238" font-family="'Segoe UI'" font-size="14" font-weight="700" lengthAdjust="spacing" textLength="103.8037" x="263.0781" y="576.9951">IKA &amp; Alumni</text></g><!--cluster Integrasi & Sync--><g class="cluster" data-qualified-name="IamUNSRI . Admin Domain.Integrasi . Sync" data-source-line="129" id="ent0048"><rect fill="#F8F9FA" height="217" rx="8" ry="8" style="stroke:#CFD8DC;stroke-width:1.5;" width="193.01" x="89.67" y="321"/><text fill="#263238" font-family="'Segoe UI'" font-size="14" font-weight="700" lengthAdjust="spacing" textLength="130.2998" x="121.0251" y="335.9951">Integrasi &amp; Sync</text></g><!--cluster Konfigurasi Sistem--><g class="cluster" data-qualified-name="IamUNSRI . Admin Domain.Konfigurasi Sistem" data-source-line="135" id="ent0052"><rect fill="#F8F9FA" height="148" rx="8" ry="8" style="stroke:#CFD8DC;stroke-width:1.5;" width="177.45" x="97.45" y="149"/><text fill="#263238" font-family="'Segoe UI'" font-size="14" font-weight="700" lengthAdjust="spacing" textLength="149.6592" x="111.3454" y="163.9951">Konfigurasi Sistem</text></g><!--cluster Utilitas--><g class="cluster" data-qualified-name="IamUNSRI . Admin Domain.Utilitas" data-source-line="140" id="ent0055"><rect fill="#F8F9FA" height="75" rx="8" ry="8" style="stroke:#CFD8DC;stroke-width:1.5;" width="124.61" x="123.87" y="50"/><text fill="#263238" font-family="'Segoe UI'" font-size="14" font-weight="700" lengthAdjust="spacing" textLength="56.9297" x="157.7102" y="64.9951">Utilitas</text></g><!--entity UC_USER_LIST--><g class="entity" data-qualified-name="IamUNSRI . Admin Domain.Manajemen User.UC_USER_LIST" data-source-line="68" id="ent0005"><ellipse cx="186.1692" cy="2673.9978" fill="#F5F5F5" rx="59.8392" ry="14.3678" style="stroke:#90A4AE;stroke-width:1.2;"/><text fill="#37474F" font-family="'Segoe UI'" font-size="11" lengthAdjust="spacing" textLength="93.9351" x="139.2017" y="2676.9002">Lihat Daftar User</text></g><!--entity UC_USER_CREATE--><g class="entity" data-qualified-name="IamUNSRI . Admin Domain.Manajemen User.UC_USER_CREATE" data-source-line="69" id="ent0006"><ellipse cx="186.1742" cy="2612.0028" fill="#F5F5F5" rx="51.7142" ry="12.7428" style="stroke:#90A4AE;stroke-width:1.2;"/><text fill="#37474F" font-family="'Segoe UI'" font-size="11" lengthAdjust="spacing" textLength="73.439" x="149.4547" y="2614.9052">Tambah User</text></g><!--entity UC_USER_EDIT--><g class="entity" data-qualified-name="IamUNSRI . Admin Domain.Manajemen User.UC_USER_EDIT" data-source-line="70" id="ent0007"><ellipse cx="186.1738" cy="2862.0043" fill="#F5F5F5" rx="38.2638" ry="12.0543" style="stroke:#90A4AE;stroke-width:1.2;"/><text fill="#37474F" font-family="'Segoe UI'" font-size="11" lengthAdjust="spacing" textLength="49.8706" x="161.2385" y="2864.9066">Edit User</text></g><!--entity UC_USER_DELETE--><g class="entity" data-qualified-name="IamUNSRI . Admin Domain.Manajemen User.UC_USER_DELETE" data-source-line="71" id="ent0008"><ellipse cx="186.1659" cy="2803.0043" fill="#F5F5F5" rx="47.7359" ry="12.0543" style="stroke:#90A4AE;stroke-width:1.2;"/><text fill="#37474F" font-family="'Segoe UI'" font-size="11" lengthAdjust="spacing" textLength="63.2661" x="154.5328" y="2805.9066">Hapus User</text></g><!--entity UC_USER_RESET--><g class="entity" data-qualified-name="IamUNSRI . Admin Domain.Manajemen User.UC_USER_RESET" data-source-line="72" id="ent0009"><ellipse cx="186.1655" cy="2740.0031" fill="#F5F5F5" rx="68.9655" ry="16.1931" style="stroke:#90A4AE;stroke-width:1.2;"/><text fill="#37474F" font-family="'Segoe UI'" font-size="11" lengthAdjust="spacing" textLength="115.355" x="128.488" y="2742.9054">Reset Password User</text></g><!--entity UC_ROLE_MANAGE--><g class="entity" data-qualified-name="IamUNSRI . Admin Domain.RBAC.UC_ROLE_MANAGE" data-source-line="76" id="ent0011"><ellipse cx="186.1715" cy="2307.9963" fill="#F5F5F5" rx="49.3315" ry="12.2663" style="stroke:#90A4AE;stroke-width:1.2;"/><text fill="#37474F" font-family="'Segoe UI'" font-size="11" lengthAdjust="spacing" textLength="66.9883" x="152.6774" y="2310.8986">Kelola Roles</text></g><!--entity UC_PERM_MANAGE--><g class="entity" data-qualified-name="IamUNSRI . Admin Domain.RBAC.UC_PERM_MANAGE" data-source-line="77" id="ent0012"><ellipse cx="186.1735" cy="2509.0027" fill="#F5F5F5" rx="63.5135" ry="15.1027" style="stroke:#90A4AE;stroke-width:1.2;"/><text fill="#37474F" font-family="'Segoe UI'" font-size="11" lengthAdjust="spacing" textLength="102.7061" x="134.8205" y="2511.905">Kelola Permissions</text></g><!--entity UC_ROLE_ASSIGN--><g class="entity" data-qualified-name="IamUNSRI . Admin Domain.RBAC.UC_ROLE_ASSIGN" data-source-line="78" id="ent0013"><ellipse cx="186.1701" cy="2443.002" fill="#F5F5F5" rx="66.1601" ry="15.632" style="stroke:#90A4AE;stroke-width:1.2;"/><text fill="#37474F" font-family="'Segoe UI'" font-size="11" lengthAdjust="spacing" textLength="108.8936" x="131.7234" y="2445.9044">Assign Role ke User</text></g><!--entity UC_PERM_ASSIGN--><g class="entity" data-qualified-name="IamUNSRI . Admin Domain.RBAC.UC_PERM_ASSIGN" data-source-line="79" id="ent0014"><ellipse cx="186.175" cy="2374.005" fill="#F5F5F5" rx="81.675" ry="18.735" style="stroke:#90A4AE;stroke-width:1.2;"/><text fill="#37474F" font-family="'Segoe UI'" font-size="11" lengthAdjust="spacing" textLength="143.7358" x="114.307" y="2376.9073">Assign Permission ke Role</text></g><!--entity UC_VERIFY_LIST--><g class="entity" data-qualified-name="IamUNSRI . Admin Domain.Verifikasi.UC_VERIFY_LIST" data-source-line="83" id="ent0016"><ellipse cx="454.0717" cy="1465.0043" fill="#F5F5F5" rx="73.2217" ry="17.0443" style="stroke:#90A4AE;stroke-width:1.2;"/><text fill="#37474F" font-family="'Segoe UI'" font-size="11" lengthAdjust="spacing" textLength="125.0015" x="391.571" y="1467.9067">Lihat Antrian Verifikasi</text></g><!--entity UC_VERIFY_APPROVE--><g class="entity" data-qualified-name="IamUNSRI . Admin Domain.Verifikasi.UC_VERIFY_APPROVE" data-source-line="84" id="ent0017"><ellipse cx="186.1697" cy="1404.0019" fill="#F5F5F5" rx="62.4597" ry="14.8919" style="stroke:#90A4AE;stroke-width:1.2;"/><text fill="#37474F" font-family="'Segoe UI'" font-size="11" lengthAdjust="spacing" textLength="100.2139" x="136.0628" y="1406.9043">Approve Verifikasi</text></g><!--entity UC_VERIFY_REJECT--><g class="entity" data-qualified-name="IamUNSRI . Admin Domain.Verifikasi.UC_VERIFY_REJECT" data-source-line="85" id="ent0018"><ellipse cx="186.1725" cy="1467.9965" fill="#F5F5F5" rx="57.7325" ry="13.9465" style="stroke:#90A4AE;stroke-width:1.2;"/><text fill="#37474F" font-family="'Segoe UI'" font-size="11" lengthAdjust="spacing" textLength="88.7896" x="141.7777" y="1470.8988">Reject Verifikasi</text></g><!--entity UC_JOB_LIST--><g class="entity" data-qualified-name="IamUNSRI . Admin Domain.Manajemen Lowongan.UC_JOB_LIST" data-source-line="89" id="ent0020"><ellipse cx="186.1723" cy="2007.9985" fill="#F5F5F5" rx="74.8423" ry="17.3685" style="stroke:#90A4AE;stroke-width:1.2;"/><text fill="#37474F" font-family="'Segoe UI'" font-size="11" lengthAdjust="spacing" textLength="128.6323" x="121.8562" y="2010.9008">Lihat Semua Lowongan</text></g><!--entity UC_JOB_CREATE--><g class="entity" data-qualified-name="IamUNSRI . Admin Domain.Manajemen Lowongan.UC_JOB_CREATE" data-source-line="90" id="ent0021"><ellipse cx="186.1669" cy="1939.9954" fill="#F5F5F5" rx="64.3269" ry="15.2654" style="stroke:#90A4AE;stroke-width:1.2;"/><text fill="#37474F" font-family="'Segoe UI'" font-size="11" lengthAdjust="spacing" textLength="104.6182" x="133.8578" y="1942.8977">Tambah Lowongan</text></g><!--entity UC_JOB_EDIT--><g class="entity" data-qualified-name="IamUNSRI . Admin Domain.Manajemen Lowongan.UC_JOB_EDIT" data-source-line="91" id="ent0022"><ellipse cx="186.1732" cy="2207.9986" fill="#F5F5F5" rx="54.6432" ry="13.3286" style="stroke:#90A4AE;stroke-width:1.2;"/><text fill="#37474F" font-family="'Segoe UI'" font-size="11" lengthAdjust="spacing" textLength="81.0498" x="145.6483" y="2210.901">Edit Lowongan</text></g><!--entity UC_JOB_DELETE--><g class="entity" data-qualified-name="IamUNSRI . Admin Domain.Manajemen Lowongan.UC_JOB_DELETE" data-source-line="92" id="ent0023"><ellipse cx="186.1702" cy="2145" fill="#F5F5F5" rx="60.0502" ry="14.41" style="stroke:#90A4AE;stroke-width:1.2;"/><text fill="#37474F" font-family="'Segoe UI'" font-size="11" lengthAdjust="spacing" textLength="94.4453" x="138.9476" y="2147.9024">Hapus Lowongan</text></g><!--entity UC_JOB_APPLICANTS--><g class="entity" data-qualified-name="IamUNSRI . Admin Domain.Manajemen Lowongan.UC_JOB_APPLICANTS" data-source-line="93" id="ent0024"><ellipse cx="454.0717" cy="2142.9983" fill="#F5F5F5" rx="52.6417" ry="12.9283" style="stroke:#90A4AE;stroke-width:1.2;"/><text fill="#37474F" font-family="'Segoe UI'" font-size="11" lengthAdjust="spacing" textLength="75.8828" x="416.1303" y="2145.9007">Lihat Pelamar</text></g><!--entity UC_JOB_APP_STATUS--><g class="entity" data-qualified-name="IamUNSRI . Admin Domain.Manajemen Lowongan.UC_JOB_APP_STATUS" data-source-line="94" id="ent0025"><ellipse cx="186.1737" cy="2078.0007" fill="#F5F5F5" rx="75.6537" ry="17.5307" style="stroke:#90A4AE;stroke-width:1.2;"/><text fill="#37474F" font-family="'Segoe UI'" font-size="11" lengthAdjust="spacing" textLength="130.4424" x="120.9525" y="2080.9031">Update Status Lamaran</text></g><!--entity UC_ACT_LIST--><g class="entity" data-qualified-name="IamUNSRI . Admin Domain.Manajemen Kegiatan.UC_ACT_LIST" data-source-line="98" id="ent0027"><ellipse cx="186.1707" cy="1638.0041" fill="#F5F5F5" rx="71.5207" ry="16.7041" style="stroke:#90A4AE;stroke-width:1.2;"/><text fill="#37474F" font-family="'Segoe UI'" font-size="11" lengthAdjust="spacing" textLength="121.1665" x="125.5874" y="1640.9065">Lihat Semua Kegiatan</text></g><!--entity UC_ACT_CREATE--><g class="entity" data-qualified-name="IamUNSRI . Admin Domain.Manajemen Kegiatan.UC_ACT_CREATE" data-source-line="99" id="ent0028"><ellipse cx="186.1655" cy="1571.9951" fill="#F5F5F5" rx="61.1755" ry="14.6351" style="stroke:#90A4AE;stroke-width:1.2;"/><text fill="#37474F" font-family="'Segoe UI'" font-size="11" lengthAdjust="spacing" textLength="97.1523" x="137.5894" y="1574.8975">Tambah Kegiatan</text></g><!--entity UC_ACT_EDIT--><g class="entity" data-qualified-name="IamUNSRI . Admin Domain.Manajemen Kegiatan.UC_ACT_EDIT" data-source-line="100" id="ent0029"><ellipse cx="186.1689" cy="1837.0038" fill="#F5F5F5" rx="51.7689" ry="12.7538" style="stroke:#90A4AE;stroke-width:1.2;"/><text fill="#37474F" font-family="'Segoe UI'" font-size="11" lengthAdjust="spacing" textLength="73.584" x="149.3769" y="1839.9061">Edit Kegiatan</text></g><!--entity UC_ACT_DELETE--><g class="entity" data-qualified-name="IamUNSRI . Admin Domain.Manajemen Kegiatan.UC_ACT_DELETE" data-source-line="101" id="ent0030"><ellipse cx="186.171" cy="1775.0002" fill="#F5F5F5" rx="57.001" ry="13.8002" style="stroke:#90A4AE;stroke-width:1.2;"/><text fill="#37474F" font-family="'Segoe UI'" font-size="11" lengthAdjust="spacing" textLength="86.9795" x="142.6813" y="1777.9025">Hapus Kegiatan</text></g><!--entity UC_ACT_PARTICIPANTS--><g class="entity" data-qualified-name="IamUNSRI . Admin Domain.Manajemen Kegiatan.UC_ACT_PARTICIPANTS" data-source-line="102" id="ent0031"><ellipse cx="454.0723" cy="1772.9985" fill="#F5F5F5" rx="51.2423" ry="12.6485" style="stroke:#90A4AE;stroke-width:1.2;"/><text fill="#37474F" font-family="'Segoe UI'" font-size="11" lengthAdjust="spacing" textLength="72.1821" x="417.9812" y="1775.9008">Lihat Peserta</text></g><!--entity UC_ACT_REG_STATUS--><g class="entity" data-qualified-name="IamUNSRI . Admin Domain.Manajemen Kegiatan.UC_ACT_REG_STATUS" data-source-line="103" id="ent0032"><ellipse cx="186.1708" cy="1708.0002" fill="#F5F5F5" rx="78.3508" ry="18.0702" style="stroke:#90A4AE;stroke-width:1.2;"/><text fill="#37474F" font-family="'Segoe UI'" font-size="11" lengthAdjust="spacing" textLength="136.4258" x="117.9579" y="1710.9025">Update Status Registrasi</text></g><!--entity UC_POST_MANAGE--><g class="entity" data-qualified-name="IamUNSRI . Admin Domain.Manajemen Konten.UC_POST_MANAGE" data-source-line="107" id="ent0034"><ellipse cx="186.1721" cy="1237.0024" fill="#F5F5F5" rx="61.1621" ry="14.6324" style="stroke:#90A4AE;stroke-width:1.2;"/><text fill="#37474F" font-family="'Segoe UI'" font-size="11" lengthAdjust="spacing" textLength="97.1201" x="137.612" y="1239.9048">Kelola Post/Berita</text></g><!--entity UC_CAROUSEL_MANAGE--><g class="entity" data-qualified-name="IamUNSRI . Admin Domain.Manajemen Konten.UC_CAROUSEL_MANAGE" data-source-line="108" id="ent0035"><ellipse cx="186.1713" cy="1300.0023" fill="#F5F5F5" rx="56.3113" ry="13.6623" style="stroke:#90A4AE;stroke-width:1.2;"/><text fill="#37474F" font-family="'Segoe UI'" font-size="11" lengthAdjust="spacing" textLength="85.2607" x="143.541" y="1302.9046">Kelola Carousel</text></g><!--entity UC_VOUCHER_LIST--><g class="entity" data-qualified-name="IamUNSRI . Admin Domain.Manajemen Voucher.UC_VOUCHER_LIST" data-source-line="112" id="ent0037"><ellipse cx="186.1694" cy="947.9959" fill="#F5F5F5" rx="52.7794" ry="12.9559" style="stroke:#90A4AE;stroke-width:1.2;"/><text fill="#37474F" font-family="'Segoe UI'" font-size="11" lengthAdjust="spacing" textLength="76.2427" x="148.048" y="950.8982">Lihat Voucher</text></g><!--entity UC_VOUCHER_CREATE--><g class="entity" data-qualified-name="IamUNSRI . Admin Domain.Manajemen Voucher.UC_VOUCHER_CREATE" data-source-line="113" id="ent0038"><ellipse cx="186.1659" cy="885.9952" fill="#F5F5F5" rx="59.8259" ry="14.3652" style="stroke:#90A4AE;stroke-width:1.2;"/><text fill="#37474F" font-family="'Segoe UI'" font-size="11" lengthAdjust="spacing" textLength="93.9028" x="139.2145" y="888.8975">Tambah Voucher</text></g><!--entity UC_VOUCHER_EDIT--><g class="entity" data-qualified-name="IamUNSRI . Admin Domain.Manajemen Voucher.UC_VOUCHER_EDIT" data-source-line="114" id="ent0039"><ellipse cx="186.1651" cy="1134.001" fill="#F5F5F5" rx="50.5551" ry="12.511" style="stroke:#90A4AE;stroke-width:1.2;"/><text fill="#37474F" font-family="'Segoe UI'" font-size="11" lengthAdjust="spacing" textLength="70.3345" x="150.9978" y="1136.9034">Edit Voucher</text></g><!--entity UC_VOUCHER_DELETE--><g class="entity" data-qualified-name="IamUNSRI . Admin Domain.Manajemen Voucher.UC_VOUCHER_DELETE" data-source-line="115" id="ent0040"><ellipse cx="186.1713" cy="1073.0003" fill="#F5F5F5" rx="55.7013" ry="13.5403" style="stroke:#90A4AE;stroke-width:1.2;"/><text fill="#37474F" font-family="'Segoe UI'" font-size="11" lengthAdjust="spacing" textLength="83.73" x="144.3063" y="1075.9026">Hapus Voucher</text></g><!--entity UC_VOUCHER_REDEEMERS--><g class="entity" data-qualified-name="IamUNSRI . Admin Domain.Manajemen Voucher.UC_VOUCHER_REDEEMERS" data-source-line="116" id="ent0041"><ellipse cx="186.1665" cy="1010.0013" fill="#F5F5F5" rx="59.6065" ry="14.3213" style="stroke:#90A4AE;stroke-width:1.2;"/><text fill="#37474F" font-family="'Segoe UI'" font-size="11" lengthAdjust="spacing" textLength="93.3711" x="139.4809" y="1012.9036">Lihat Redeemers</text></g><!--entity UC_COMPANY_MANAGE--><g class="entity" data-qualified-name="IamUNSRI . Admin Domain.Manajemen Perusahaan.UC_COMPANY_MANAGE" data-source-line="120" id="ent0043"><ellipse cx="186.1697" cy="778.9959" fill="#F5F5F5" rx="76.1797" ry="17.6359" style="stroke:#90A4AE;stroke-width:1.2;"/><text fill="#37474F" font-family="'Segoe UI'" font-size="11" lengthAdjust="spacing" textLength="131.6133" x="120.363" y="781.8983">Kelola Data Perusahaan</text></g><!--entity UC_IKA_IMPORT--><g class="entity" data-qualified-name="IamUNSRI . Admin Domain.IKA . Alumni.UC_IKA_IMPORT" data-source-line="124" id="ent0045"><ellipse cx="186.1716" cy="670.0003" fill="#F5F5F5" rx="65.8016" ry="15.5603" style="stroke:#90A4AE;stroke-width:1.2;"/><text fill="#37474F" font-family="'Segoe UI'" font-size="11" lengthAdjust="spacing" textLength="108.061" x="132.1411" y="672.9027">Import Data Alumni</text></g><!--entity UC_IKA_PREVIEW--><g class="entity" data-qualified-name="IamUNSRI . Admin Domain.IKA . Alumni.UC_IKA_PREVIEW" data-source-line="125" id="ent0046"><ellipse cx="454.0738" cy="611.0028" fill="#F5F5F5" rx="55.5138" ry="13.5028" style="stroke:#90A4AE;stroke-width:1.2;"/><text fill="#37474F" font-family="'Segoe UI'" font-size="11" lengthAdjust="spacing" textLength="83.2573" x="412.4451" y="613.9051">Preview Import</text></g><!--entity UC_IKA_COMMIT--><g class="entity" data-qualified-name="IamUNSRI . Admin Domain.IKA . Alumni.UC_IKA_COMMIT" data-source-line="126" id="ent0047"><ellipse cx="454.0667" cy="672.9993" fill="#F5F5F5" rx="55.4967" ry="13.4993" style="stroke:#90A4AE;stroke-width:1.2;"/><text fill="#37474F" font-family="'Segoe UI'" font-size="11" lengthAdjust="spacing" textLength="83.2144" x="412.4596" y="675.9017">Commit Import</text></g><!--entity UC_SYNC_VACANCY--><g class="entity" data-qualified-name="IamUNSRI . Admin Domain.Integrasi . Sync.UC_SYNC_VACANCY" data-source-line="130" id="ent0049"><ellipse cx="186.169" cy="503.0018" fill="#F5F5F5" rx="80.509" ry="18.5018" style="stroke:#90A4AE;stroke-width:1.2;"/><text fill="#37474F" font-family="'Segoe UI'" font-size="11" lengthAdjust="spacing" textLength="141.1792" x="115.5794" y="505.9041">Sync Lowongan Eksternal</text></g><!--entity UC_SYNC_SOFTSKILL--><g class="entity" data-qualified-name="IamUNSRI . Admin Domain.Integrasi . Sync.UC_SYNC_SOFTSKILL" data-source-line="131" id="ent0050"><ellipse cx="186.1667" cy="436.0013" fill="#F5F5F5" rx="53.8067" ry="13.1613" style="stroke:#90A4AE;stroke-width:1.2;"/><text fill="#37474F" font-family="'Segoe UI'" font-size="11" lengthAdjust="spacing" textLength="78.9067" x="146.7133" y="438.9037">Sync Softskills</text></g><!--entity UC_SYNC_PRODI--><g class="entity" data-qualified-name="IamUNSRI . Admin Domain.Integrasi . Sync.UC_SYNC_PRODI" data-source-line="132" id="ent0051"><ellipse cx="186.1683" cy="372.0017" fill="#F5F5F5" rx="66.0583" ry="15.6117" style="stroke:#90A4AE;stroke-width:1.2;"/><text fill="#37474F" font-family="'Segoe UI'" font-size="11" lengthAdjust="spacing" textLength="108.6572" x="131.8397" y="374.904">Sync Program Studi</text></g><!--entity UC_CONFIG_MANAGE--><g class="entity" data-qualified-name="IamUNSRI . Admin Domain.Konfigurasi Sistem.UC_CONFIG_MANAGE" data-source-line="136" id="ent0053"><ellipse cx="186.1698" cy="200.996" fill="#F5F5F5" rx="72.7298" ry="16.946" style="stroke:#90A4AE;stroke-width:1.2;"/><text fill="#37474F" font-family="'Segoe UI'" font-size="11" lengthAdjust="spacing" textLength="123.895" x="124.2223" y="203.8983">Kelola Konfigurasi App</text></g><!--entity UC_CONFIG_VERSION--><g class="entity" data-qualified-name="IamUNSRI . Admin Domain.Konfigurasi Sistem.UC_CONFIG_VERSION" data-source-line="137" id="ent0054"><ellipse cx="186.1716" cy="266.9963" fill="#F5F5F5" rx="58.0816" ry="14.0163" style="stroke:#90A4AE;stroke-width:1.2;"/><text fill="#37474F" font-family="'Segoe UI'" font-size="11" lengthAdjust="spacing" textLength="89.6489" x="141.3471" y="269.8987">Kelola Versi App</text></g><!--entity UC_UPLOAD--><g class="entity" data-qualified-name="IamUNSRI . Admin Domain.Utilitas.UC_UPLOAD" data-source-line="141" id="ent0056"><ellipse cx="186.1679" cy="97.0043" fill="#F5F5F5" rx="46.3079" ry="12.0543" style="stroke:#90A4AE;stroke-width:1.2;"/><text fill="#37474F" font-family="'Segoe UI'" font-size="11" lengthAdjust="spacing" textLength="61.2466" x="155.5446" y="99.9066">Upload File</text></g><!--entity ADMIN--><g class="entity" data-qualified-name="ADMIN" data-source-line="63" id="ent0002"><ellipse cx="33" cy="1686.43" fill="#E8EAF6" rx="16" ry="16" style="stroke:#5C6BC0;stroke-width:0.5;"/><path d="M33,1706.43 C37,1706.43 40,1706.43 44,1702.43 C52,1702.43 60,1710.43 60,1718.43 L60,1722.43 C60,1726.43 56,1730.43 52,1730.43 L14,1730.43 C10,1730.43 6,1726.43 6,1722.43 L6,1718.43 C6,1710.43 14,1702.43 22,1702.43 C26,1706.43 29,1706.43 33,1706.43" fill="#E8EAF6" style="stroke:#5C6BC0;stroke-width:0.5;"/><text fill="#283593" font-family="'Segoe UI'" font-size="13" lengthAdjust="spacing" textLength="41.6597" x="12.1702" y="1742.9969">Admin</text></g><!--link ADMIN to UC_USER_LIST--><g class="link" data-entity-1="ent0002" data-entity-2="ent0005" data-link-type="dependency" data-source-line="145" id="lnk57"><path d="M20.29,1746.46 C20.29,1926.13 20.29,2674 20.29,2674 C20.29,2674 72.77,2674 120.29,2674" fill="none" id="ADMIN-to-UC_USER_LIST" style="stroke:#78909C;stroke-width:1.2;"/><polygon fill="#78909C" points="126.29,2674,117.29,2670,121.29,2674,117.29,2678,126.29,2674" style="stroke:#78909C;stroke-width:1.2;"/></g><!--link ADMIN to UC_USER_CREATE--><g class="link" data-entity-1="ent0002" data-entity-2="ent0006" data-link-type="dependency" data-source-line="146" id="lnk58"><path d="M24.29,1746.55 C24.29,1919.1 24.29,2612 24.29,2612 C24.29,2612 80.74,2612 128.06,2612" fill="none" id="ADMIN-to-UC_USER_CREATE" style="stroke:#78909C;stroke-width:1.2;"/><polygon fill="#78909C" points="134.06,2612,125.06,2608,129.06,2612,125.06,2616,134.06,2612" style="stroke:#78909C;stroke-width:1.2;"/></g><!--link ADMIN to UC_USER_EDIT--><g class="link" data-entity-1="ent0002" data-entity-2="ent0007" data-link-type="dependency" data-source-line="147" id="lnk59"><path d="M9.29,1746.4 C9.29,1946.63 9.29,2862 9.29,2862 C9.29,2862 89.77,2862 141.79,2862" fill="none" id="ADMIN-to-UC_USER_EDIT" style="stroke:#78909C;stroke-width:1.2;"/><polygon fill="#78909C" points="147.79,2862,138.79,2858,142.79,2862,138.79,2866,147.79,2862" style="stroke:#78909C;stroke-width:1.2;"/></g><!--link ADMIN to UC_USER_DELETE--><g class="link" data-entity-1="ent0002" data-entity-2="ent0008" data-link-type="dependency" data-source-line="148" id="lnk60"><path d="M13.29,1746.33 C13.29,1940.14 13.29,2803 13.29,2803 C13.29,2803 80.86,2803 132.02,2803" fill="none" id="ADMIN-to-UC_USER_DELETE" style="stroke:#78909C;stroke-width:1.2;"/><polygon fill="#78909C" points="138.02,2803,129.02,2799,133.02,2803,129.02,2807,138.02,2803" style="stroke:#78909C;stroke-width:1.2;"/></g><!--link ADMIN to UC_USER_RESET--><g class="link" data-entity-1="ent0002" data-entity-2="ent0009" data-link-type="dependency" data-source-line="149" id="lnk61"><path d="M17.29,1746.26 C17.29,1933.03 17.29,2740 17.29,2740 C17.29,2740 64.36,2740 111,2740" fill="none" id="ADMIN-to-UC_USER_RESET" style="stroke:#78909C;stroke-width:1.2;"/><polygon fill="#78909C" points="117,2740,108,2736,112,2740,108,2744,117,2740" style="stroke:#78909C;stroke-width:1.2;"/></g><!--link ADMIN to UC_ROLE_MANAGE--><g class="link" data-entity-1="ent0002" data-entity-2="ent0011" data-link-type="dependency" data-source-line="151" id="lnk62"><path d="M39.29,1746.45 C39.29,1878.87 39.29,2308 39.29,2308 C39.29,2308 87.84,2308 130.45,2308" fill="none" id="ADMIN-to-UC_ROLE_MANAGE" style="stroke:#78909C;stroke-width:1.2;"/><polygon fill="#78909C" points="136.45,2308,127.45,2304,131.45,2308,127.45,2312,136.45,2308" style="stroke:#78909C;stroke-width:1.2;"/></g><!--link ADMIN to UC_PERM_MANAGE--><g class="link" data-entity-1="ent0002" data-entity-2="ent0012" data-link-type="dependency" data-source-line="152" id="lnk63"><path d="M28.29,1746.36 C28.29,1905.96 28.29,2509 28.29,2509 C28.29,2509 72.6,2509 116.41,2509" fill="none" id="ADMIN-to-UC_PERM_MANAGE" style="stroke:#78909C;stroke-width:1.2;"/><polygon fill="#78909C" points="122.41,2509,113.41,2505,117.41,2509,113.41,2513,122.41,2509" style="stroke:#78909C;stroke-width:1.2;"/></g><!--link ADMIN to UC_ROLE_ASSIGN--><g class="link" data-entity-1="ent0002" data-entity-2="ent0013" data-link-type="dependency" data-source-line="153" id="lnk64"><path d="M31.29,1746.48 C31.29,1897.71 31.29,2443 31.29,2443 C31.29,2443 71.61,2443 113.59,2443" fill="none" id="ADMIN-to-UC_ROLE_ASSIGN" style="stroke:#78909C;stroke-width:1.2;"/><polygon fill="#78909C" points="119.59,2443,110.59,2439,114.59,2443,110.59,2447,119.59,2443" style="stroke:#78909C;stroke-width:1.2;"/></g><!--link ADMIN to UC_PERM_ASSIGN--><g class="link" data-entity-1="ent0002" data-entity-2="ent0014" data-link-type="dependency" data-source-line="154" id="lnk65"><path d="M35.29,1746.2 C35.29,1887.72 35.29,2374 35.29,2374 C35.29,2374 62.72,2374 98.11,2374" fill="none" id="ADMIN-to-UC_PERM_ASSIGN" style="stroke:#78909C;stroke-width:1.2;"/><polygon fill="#78909C" points="104.11,2374,95.11,2370,99.11,2374,95.11,2378,104.11,2374" style="stroke:#78909C;stroke-width:1.2;"/></g><!--link ADMIN to UC_VERIFY_LIST--><g class="link" data-entity-1="ent0002" data-entity-2="ent0016" data-link-type="dependency" data-source-line="156" id="lnk66"><path d="M60.82,1679.93 C145,1679.93 391.29,1679.93 391.29,1679.93 C391.29,1679.93 391.29,1520.64 391.29,1479.96" fill="none" id="ADMIN-to-UC_VERIFY_LIST" style="stroke:#78909C;stroke-width:1.2;"/><polygon fill="#78909C" points="391.29,1473.96,387.29,1482.96,391.29,1478.96,395.29,1482.96,391.29,1473.96" style="stroke:#78909C;stroke-width:1.2;"/></g><!--link ADMIN to UC_VERIFY_APPROVE--><g class="link" data-entity-1="ent0002" data-entity-2="ent0017" data-link-type="dependency" data-source-line="157" id="lnk67"><path d="M50.29,1669.5 C50.29,1587.7 50.29,1404 50.29,1404 C50.29,1404 81.8,1404 117.4,1404" fill="none" id="ADMIN-to-UC_VERIFY_APPROVE" style="stroke:#78909C;stroke-width:1.2;"/><polygon fill="#78909C" points="123.4,1404,114.4,1400,118.4,1404,114.4,1408,123.4,1404" style="stroke:#78909C;stroke-width:1.2;"/></g><!--link ADMIN to UC_VERIFY_REJECT--><g class="link" data-entity-1="ent0002" data-entity-2="ent0018" data-link-type="dependency" data-source-line="158" id="lnk68"><path d="M52.29,1669.44 C52.29,1601.6 52.29,1468 52.29,1468 C52.29,1468 86.05,1468 122.23,1468" fill="none" id="ADMIN-to-UC_VERIFY_REJECT" style="stroke:#78909C;stroke-width:1.2;"/><polygon fill="#78909C" points="128.23,1468,119.23,1464,123.23,1468,119.23,1472,128.23,1468" style="stroke:#78909C;stroke-width:1.2;"/></g><!--link ADMIN to UC_JOB_LIST--><g class="link" data-entity-1="ent0002" data-entity-2="ent0020" data-link-type="dependency" data-source-line="160" id="lnk69"><path d="M60.6,1742.07 C85.18,1742.07 117.29,1742.07 117.29,1742.07 C117.29,1742.07 117.29,1952.6 117.29,1994.89" fill="none" id="ADMIN-to-UC_JOB_LIST" style="stroke:#78909C;stroke-width:1.2;"/><polygon fill="#78909C" points="117.29,2000.89,121.29,1991.89,117.29,1995.89,113.29,1991.89,117.29,2000.89" style="stroke:#78909C;stroke-width:1.2;"/></g><!--link ADMIN to UC_JOB_CREATE--><g class="link" data-entity-1="ent0002" data-entity-2="ent0021" data-link-type="dependency" data-source-line="161" id="lnk70"><path d="M60.99,1738.07 C88.47,1738.07 126.29,1738.07 126.29,1738.07 C126.29,1738.07 126.29,1895.07 126.29,1928.17" fill="none" id="ADMIN-to-UC_JOB_CREATE" style="stroke:#78909C;stroke-width:1.2;"/><polygon fill="#78909C" points="126.29,1934.17,130.29,1925.17,126.29,1929.17,122.29,1925.17,126.29,1934.17" style="stroke:#78909C;stroke-width:1.2;"/></g><!--link ADMIN to UC_JOB_EDIT--><g class="link" data-entity-1="ent0002" data-entity-2="ent0022" data-link-type="dependency" data-source-line="162" id="lnk71"><path d="M42.29,1746.4 C42.29,1863.49 42.29,2208 42.29,2208 C42.29,2208 84.71,2208 125.37,2208" fill="none" id="ADMIN-to-UC_JOB_EDIT" style="stroke:#78909C;stroke-width:1.2;"/><polygon fill="#78909C" points="131.37,2208,122.37,2204,126.37,2208,122.37,2212,131.37,2208" style="stroke:#78909C;stroke-width:1.2;"/></g><!--link ADMIN to UC_JOB_DELETE--><g class="link" data-entity-1="ent0002" data-entity-2="ent0023" data-link-type="dependency" data-source-line="163" id="lnk72"><path d="M46.29,1746.4 C46.29,1853.03 46.29,2145 46.29,2145 C46.29,2145 81.83,2145 119.63,2145" fill="none" id="ADMIN-to-UC_JOB_DELETE" style="stroke:#78909C;stroke-width:1.2;"/><polygon fill="#78909C" points="125.63,2145,116.63,2141,120.63,2145,116.63,2149,125.63,2145" style="stroke:#78909C;stroke-width:1.2;"/></g><!--link ADMIN to UC_JOB_APPLICANTS--><g class="link" data-entity-1="ent0002" data-entity-2="ent0024" data-link-type="dependency" data-source-line="164" id="lnk73"><path d="M60.76,1734.07 C133.72,1734.07 325.29,1734.07 325.29,1734.07 C325.29,1734.07 325.29,2139.04 325.29,2139.04 C325.29,2139.04 361.47,2139.04 397.54,2139.04" fill="none" id="ADMIN-to-UC_JOB_APPLICANTS" style="stroke:#78909C;stroke-width:1.2;"/><polygon fill="#78909C" points="403.54,2139.04,394.54,2135.04,398.54,2139.04,394.54,2143.04,403.54,2139.04" style="stroke:#78909C;stroke-width:1.2;"/></g><!--link ADMIN to UC_JOB_APP_STATUS--><g class="link" data-entity-1="ent0002" data-entity-2="ent0025" data-link-type="dependency" data-source-line="165" id="lnk74"><path d="M50.29,1746.55 C50.29,1841.32 50.29,2078 50.29,2078 C50.29,2078 73.16,2078 104.29,2078" fill="none" id="ADMIN-to-UC_JOB_APP_STATUS" style="stroke:#78909C;stroke-width:1.2;"/><polygon fill="#78909C" points="110.29,2078,101.29,2074,105.29,2078,101.29,2082,110.29,2078" style="stroke:#78909C;stroke-width:1.2;"/></g><!--link ADMIN to UC_ACT_LIST--><g class="link" data-entity-1="ent0002" data-entity-2="ent0027" data-link-type="dependency" data-source-line="167" id="lnk75"><path d="M58.29,1669.72 C58.29,1653.38 58.29,1638 58.29,1638 C58.29,1638 79.23,1638 108.38,1638" fill="none" id="ADMIN-to-UC_ACT_LIST" style="stroke:#78909C;stroke-width:1.2;"/><polygon fill="#78909C" points="114.38,1638,105.38,1634,109.38,1638,105.38,1642,114.38,1638" style="stroke:#78909C;stroke-width:1.2;"/></g><!--link ADMIN to UC_ACT_CREATE--><g class="link" data-entity-1="ent0002" data-entity-2="ent0028" data-link-type="dependency" data-source-line="168" id="lnk76"><path d="M55.29,1669.75 C55.29,1629.53 55.29,1572 55.29,1572 C55.29,1572 84.62,1572 118.57,1572" fill="none" id="ADMIN-to-UC_ACT_CREATE" style="stroke:#78909C;stroke-width:1.2;"/><polygon fill="#78909C" points="124.57,1572,115.57,1568,119.57,1572,115.57,1576,124.57,1572" style="stroke:#78909C;stroke-width:1.2;"/></g><!--link ADMIN to UC_ACT_EDIT--><g class="link" data-entity-1="ent0002" data-entity-2="ent0029" data-link-type="dependency" data-source-line="169" id="lnk77"><path d="M53.29,1746.35 C53.29,1784.38 53.29,1837 53.29,1837 C53.29,1837 90.81,1837 128.04,1837" fill="none" id="ADMIN-to-UC_ACT_EDIT" style="stroke:#78909C;stroke-width:1.2;"/><polygon fill="#78909C" points="134.04,1837,125.04,1833,129.04,1837,125.04,1841,134.04,1837" style="stroke:#78909C;stroke-width:1.2;"/></g><!--link ADMIN to UC_ACT_DELETE--><g class="link" data-entity-1="ent0002" data-entity-2="ent0030" data-link-type="dependency" data-source-line="170" id="lnk78"><path d="M57.29,1746.2 C57.29,1761.24 57.29,1775 57.29,1775 C57.29,1775 88.47,1775 122.9,1775" fill="none" id="ADMIN-to-UC_ACT_DELETE" style="stroke:#78909C;stroke-width:1.2;"/><polygon fill="#78909C" points="128.9,1775,119.9,1771,123.9,1775,119.9,1779,128.9,1775" style="stroke:#78909C;stroke-width:1.2;"/></g><!--link ADMIN to UC_ACT_PARTICIPANTS--><g class="link" data-entity-1="ent0002" data-entity-2="ent0031" data-link-type="dependency" data-source-line="171" id="lnk79"><path d="M60.97,1730.07 C155.06,1730.07 454.29,1730.07 454.29,1730.07 C454.29,1730.07 454.29,1741.26 454.29,1753.89" fill="none" id="ADMIN-to-UC_ACT_PARTICIPANTS" style="stroke:#78909C;stroke-width:1.2;"/><polygon fill="#78909C" points="454.29,1759.89,458.29,1750.89,454.29,1754.89,450.29,1750.89,454.29,1759.89" style="stroke:#78909C;stroke-width:1.2;"/></g><!--link ADMIN to UC_ACT_REG_STATUS--><g class="link" data-entity-1="ent0002" data-entity-2="ent0032" data-link-type="dependency" data-source-line="172" id="lnk80"><path d="M60.74,1708 C74.02,1708 84.65,1708 101.43,1708" fill="none" id="ADMIN-to-UC_ACT_REG_STATUS" style="stroke:#78909C;stroke-width:1.2;"/><polygon fill="#78909C" points="107.43,1708,98.43,1704,102.43,1708,98.43,1712,107.43,1708" style="stroke:#78909C;stroke-width:1.2;"/></g><!--link ADMIN to UC_POST_MANAGE--><g class="link" data-entity-1="ent0002" data-entity-2="ent0034" data-link-type="dependency" data-source-line="174" id="lnk81"><path d="M44.29,1669.46 C44.29,1556.97 44.29,1237 44.29,1237 C44.29,1237 80.42,1237 118.77,1237" fill="none" id="ADMIN-to-UC_POST_MANAGE" style="stroke:#78909C;stroke-width:1.2;"/><polygon fill="#78909C" points="124.77,1237,115.77,1233,119.77,1237,115.77,1241,124.77,1237" style="stroke:#78909C;stroke-width:1.2;"/></g><!--link ADMIN to UC_CAROUSEL_MANAGE--><g class="link" data-entity-1="ent0002" data-entity-2="ent0035" data-link-type="dependency" data-source-line="175" id="lnk82"><path d="M47.29,1669.62 C47.29,1568.05 47.29,1300 47.29,1300 C47.29,1300 85.24,1300 123.69,1300" fill="none" id="ADMIN-to-UC_CAROUSEL_MANAGE" style="stroke:#78909C;stroke-width:1.2;"/><polygon fill="#78909C" points="129.69,1300,120.69,1296,124.69,1300,120.69,1304,129.69,1300" style="stroke:#78909C;stroke-width:1.2;"/></g><!--link ADMIN to UC_VOUCHER_LIST--><g class="link" data-entity-1="ent0002" data-entity-2="ent0037" data-link-type="dependency" data-source-line="177" id="lnk83"><path d="M33.29,1669.53 C33.29,1515.03 33.29,948 33.29,948 C33.29,948 82.98,948 127.13,948" fill="none" id="ADMIN-to-UC_VOUCHER_LIST" style="stroke:#78909C;stroke-width:1.2;"/><polygon fill="#78909C" points="133.13,948,124.13,944,128.13,948,124.13,952,133.13,948" style="stroke:#78909C;stroke-width:1.2;"/></g><!--link ADMIN to UC_VOUCHER_CREATE--><g class="link" data-entity-1="ent0002" data-entity-2="ent0038" data-link-type="dependency" data-source-line="178" id="lnk84"><path d="M30.29,1669.46 C30.29,1506.94 30.29,886 30.29,886 C30.29,886 76.04,886 119.91,886" fill="none" id="ADMIN-to-UC_VOUCHER_CREATE" style="stroke:#78909C;stroke-width:1.2;"/><polygon fill="#78909C" points="125.91,886,116.91,882,120.91,886,116.91,890,125.91,886" style="stroke:#78909C;stroke-width:1.2;"/></g><!--link ADMIN to UC_VOUCHER_EDIT--><g class="link" data-entity-1="ent0002" data-entity-2="ent0039" data-link-type="dependency" data-source-line="179" id="lnk85"><path d="M41.29,1669.45 C41.29,1540.75 41.29,1134 41.29,1134 C41.29,1134 87.72,1134 129.5,1134" fill="none" id="ADMIN-to-UC_VOUCHER_EDIT" style="stroke:#78909C;stroke-width:1.2;"/><polygon fill="#78909C" points="135.5,1134,126.5,1130,130.5,1134,126.5,1138,135.5,1134" style="stroke:#78909C;stroke-width:1.2;"/></g><!--link ADMIN to UC_VOUCHER_DELETE--><g class="link" data-entity-1="ent0002" data-entity-2="ent0040" data-link-type="dependency" data-source-line="180" id="lnk86"><path d="M39.29,1669.71 C39.29,1532.42 39.29,1073 39.29,1073 C39.29,1073 82.72,1073 124.23,1073" fill="none" id="ADMIN-to-UC_VOUCHER_DELETE" style="stroke:#78909C;stroke-width:1.2;"/><polygon fill="#78909C" points="130.23,1073,121.23,1069,125.23,1073,121.23,1077,130.23,1073" style="stroke:#78909C;stroke-width:1.2;"/></g><!--link ADMIN to UC_VOUCHER_REDEEMERS--><g class="link" data-entity-1="ent0002" data-entity-2="ent0041" data-link-type="dependency" data-source-line="181" id="lnk87"><path d="M36.29,1669.48 C36.29,1523.15 36.29,1010 36.29,1010 C36.29,1010 78.38,1010 120.08,1010" fill="none" id="ADMIN-to-UC_VOUCHER_REDEEMERS" style="stroke:#78909C;stroke-width:1.2;"/><polygon fill="#78909C" points="126.08,1010,117.08,1006,121.08,1010,117.08,1014,126.08,1010" style="stroke:#78909C;stroke-width:1.2;"/></g><!--link ADMIN to UC_COMPANY_MANAGE--><g class="link" data-entity-1="ent0002" data-entity-2="ent0043" data-link-type="dependency" data-source-line="183" id="lnk88"><path d="M28.29,1669.56 C28.29,1494.24 28.29,779 28.29,779 C28.29,779 63.32,779 103.55,779" fill="none" id="ADMIN-to-UC_COMPANY_MANAGE" style="stroke:#78909C;stroke-width:1.2;"/><polygon fill="#78909C" points="109.55,779,100.55,775,104.55,779,100.55,783,109.55,779" style="stroke:#78909C;stroke-width:1.2;"/></g><!--link ADMIN to UC_IKA_IMPORT--><g class="link" data-entity-1="ent0002" data-entity-2="ent0045" data-link-type="dependency" data-source-line="185" id="lnk89"><path d="M25.29,1669.52 C25.29,1481.66 25.29,670 25.29,670 C25.29,670 69.84,670 114.27,670" fill="none" id="ADMIN-to-UC_IKA_IMPORT" style="stroke:#78909C;stroke-width:1.2;"/><polygon fill="#78909C" points="120.27,670,111.27,666,115.27,670,111.27,674,120.27,670" style="stroke:#78909C;stroke-width:1.2;"/></g><!--link UC_IKA_IMPORT to UC_IKA_PREVIEW--><g class="link" data-entity-1="ent0045" data-entity-2="ent0046" data-link-type="dependency" data-source-line="186" id="lnk90"><path d="M186.29,654.19 C186.29,636.71 186.29,611 186.29,611 C186.29,611 313.78,611 392.26,611" fill="none" id="UC_IKA_IMPORT-to-UC_IKA_PREVIEW" style="stroke:#78909C;stroke-width:1.2;stroke-dasharray:7,7;"/><polygon fill="#78909C" points="398.26,611,389.26,607,393.26,611,389.26,615,398.26,611" style="stroke:#78909C;stroke-width:1.2;"/><text fill="#546E7A" font-family="'Segoe UI'" font-size="10" lengthAdjust="spacing" textLength="48.4668" x="221.68" y="621.2822">&#171;include&#187;</text></g><!--link UC_IKA_IMPORT to UC_IKA_COMMIT--><g class="link" data-entity-1="ent0045" data-entity-2="ent0047" data-link-type="dependency" data-source-line="187" id="lnk91"><path d="M251.37,672.53 C296.28,672.53 349.35,672.53 392.12,672.53" fill="none" id="UC_IKA_IMPORT-to-UC_IKA_COMMIT" style="stroke:#78909C;stroke-width:1.2;stroke-dasharray:7,7;"/><polygon fill="#78909C" points="398.12,672.53,389.12,668.53,393.12,672.53,389.12,676.53,398.12,672.53" style="stroke:#78909C;stroke-width:1.2;"/><text fill="#546E7A" font-family="'Segoe UI'" font-size="10" lengthAdjust="spacing" textLength="48.4668" x="275.75" y="682.8122">&#171;include&#187;</text></g><!--link ADMIN to UC_SYNC_VACANCY--><g class="link" data-entity-1="ent0002" data-entity-2="ent0049" data-link-type="dependency" data-source-line="189" id="lnk92"><path d="M22.29,1669.61 C22.29,1464.07 22.29,503 22.29,503 C22.29,503 57.91,503 99.19,503" fill="none" id="ADMIN-to-UC_SYNC_VACANCY" style="stroke:#78909C;stroke-width:1.2;"/><polygon fill="#78909C" points="105.19,503,96.19,499,100.19,503,96.19,507,105.19,503" style="stroke:#78909C;stroke-width:1.2;"/></g><!--link ADMIN to UC_SYNC_SOFTSKILL--><g class="link" data-entity-1="ent0002" data-entity-2="ent0050" data-link-type="dependency" data-source-line="190" id="lnk93"><path d="M19.29,1669.59 C19.29,1457.17 19.29,436 19.29,436 C19.29,436 77.26,436 125.99,436" fill="none" id="ADMIN-to-UC_SYNC_SOFTSKILL" style="stroke:#78909C;stroke-width:1.2;"/><polygon fill="#78909C" points="131.99,436,122.99,432,126.99,436,122.99,440,131.99,436" style="stroke:#78909C;stroke-width:1.2;"/></g><!--link ADMIN to UC_SYNC_PRODI--><g class="link" data-entity-1="ent0002" data-entity-2="ent0051" data-link-type="dependency" data-source-line="191" id="lnk94"><path d="M17.29,1669.46 C17.29,1450.41 17.29,372 17.29,372 C17.29,372 66.6,372 113.91,372" fill="none" id="ADMIN-to-UC_SYNC_PRODI" style="stroke:#78909C;stroke-width:1.2;"/><polygon fill="#78909C" points="119.91,372,110.91,368,114.91,372,110.91,376,119.91,372" style="stroke:#78909C;stroke-width:1.2;"/></g><!--link ADMIN to UC_CONFIG_MANAGE--><g class="link" data-entity-1="ent0002" data-entity-2="ent0053" data-link-type="dependency" data-source-line="193" id="lnk95"><path d="M11.29,1669.61 C11.29,1434.68 11.29,201 11.29,201 C11.29,201 59.1,201 107.02,201" fill="none" id="ADMIN-to-UC_CONFIG_MANAGE" style="stroke:#78909C;stroke-width:1.2;"/><polygon fill="#78909C" points="113.02,201,104.02,197,108.02,201,104.02,205,113.02,201" style="stroke:#78909C;stroke-width:1.2;"/></g><!--link ADMIN to UC_CONFIG_VERSION--><g class="link" data-entity-1="ent0002" data-entity-2="ent0054" data-link-type="dependency" data-source-line="194" id="lnk96"><path d="M14.29,1669.46 C14.29,1440.3 14.29,267 14.29,267 C14.29,267 72.12,267 121.98,267" fill="none" id="ADMIN-to-UC_CONFIG_VERSION" style="stroke:#78909C;stroke-width:1.2;"/><polygon fill="#78909C" points="127.98,267,118.98,263,122.98,267,118.98,271,127.98,267" style="stroke:#78909C;stroke-width:1.2;"/></g><!--link ADMIN to UC_UPLOAD--><g class="link" data-entity-1="ent0002" data-entity-2="ent0056" data-link-type="dependency" data-source-line="196" id="lnk97"><path d="M8.29,1669.77 C8.29,1425.81 8.29,97 8.29,97 C8.29,97 80.74,97 133.44,97" fill="none" id="ADMIN-to-UC_UPLOAD" style="stroke:#78909C;stroke-width:1.2;"/><polygon fill="#78909C" points="139.44,97,130.44,93,134.44,97,130.44,101,139.44,97" style="stroke:#78909C;stroke-width:1.2;"/></g><!--link UC_VERIFY_APPROVE to UC_VERIFY_LIST--><g class="link" data-entity-1="ent0017" data-entity-2="ent0016" data-link-type="dependency" data-source-line="198" id="lnk98"><path d="M249.08,1404 C309.06,1404 390.29,1404 390.29,1404 C390.29,1404 390.29,1433.39 390.29,1450.26" fill="none" id="UC_VERIFY_APPROVE-to-UC_VERIFY_LIST" style="stroke:#78909C;stroke-width:1.2;stroke-dasharray:7,7;"/><polygon fill="#78909C" points="390.29,1456.26,394.29,1447.26,390.29,1451.26,386.29,1447.26,390.29,1456.26" style="stroke:#78909C;stroke-width:1.2;"/><text fill="#546E7A" font-family="'Segoe UI'" font-size="10" lengthAdjust="spacing" textLength="52.2754" x="292.82" y="1414.2822">&#171;extends&#187;</text></g><!--link UC_VERIFY_REJECT to UC_VERIFY_LIST--><g class="link" data-entity-1="ent0018" data-entity-2="ent0016" data-link-type="dependency" data-source-line="199" id="lnk99"><path d="M244.3,1468 C284.62,1468 332.61,1468 375.71,1468" fill="none" id="UC_VERIFY_REJECT-to-UC_VERIFY_LIST" style="stroke:#78909C;stroke-width:1.2;stroke-dasharray:7,7;"/><polygon fill="#78909C" points="381.71,1468,372.71,1464,376.71,1468,372.71,1472,381.71,1468" style="stroke:#78909C;stroke-width:1.2;"/><text fill="#546E7A" font-family="'Segoe UI'" font-size="10" lengthAdjust="spacing" textLength="52.2754" x="260.01" y="1478.2822">&#171;extends&#187;</text></g><!--link UC_JOB_APP_STATUS to UC_JOB_APPLICANTS--><g class="link" data-entity-1="ent0025" data-entity-2="ent0024" data-link-type="dependency" data-source-line="200" id="lnk100"><path d="M254.29,2085.97 C254.29,2104.22 254.29,2147.48 254.29,2147.48 C254.29,2147.48 339,2147.48 398.17,2147.48" fill="none" id="UC_JOB_APP_STATUS-to-UC_JOB_APPLICANTS" style="stroke:#78909C;stroke-width:1.2;stroke-dasharray:7,7;"/><polygon fill="#78909C" points="404.17,2147.48,395.17,2143.48,399.17,2147.48,395.17,2151.48,404.17,2147.48" style="stroke:#78909C;stroke-width:1.2;"/><text fill="#546E7A" font-family="'Segoe UI'" font-size="10" lengthAdjust="spacing" textLength="52.2754" x="299.48" y="2157.7622">&#171;extends&#187;</text></g><!--link UC_ACT_REG_STATUS to UC_ACT_PARTICIPANTS--><g class="link" data-entity-1="ent0032" data-entity-2="ent0031" data-link-type="dependency" data-source-line="201" id="lnk101"><path d="M256.29,1716.29 C256.29,1733.89 256.29,1773.42 256.29,1773.42 C256.29,1773.42 337.77,1773.42 396.37,1773.42" fill="none" id="UC_ACT_REG_STATUS-to-UC_ACT_PARTICIPANTS" style="stroke:#78909C;stroke-width:1.2;stroke-dasharray:7,7;"/><polygon fill="#78909C" points="402.37,1773.42,393.37,1769.42,397.37,1773.42,393.37,1777.42,402.37,1773.42" style="stroke:#78909C;stroke-width:1.2;"/><text fill="#546E7A" font-family="'Segoe UI'" font-size="10" lengthAdjust="spacing" textLength="52.2754" x="247.76" y="1783.7022">&#171;extends&#187;</text></g><?plantuml-src nLVRRjis6BxtKn0Ui5wroy5EdA48G4jKgiO7GOSCkGeOYxRLIA8Xqiswei0UOHVR2_P9HXqiYoAPz6gBSsF-tty--Wtu_izV__7_u0smeY1Spe7dexaRpK6mT48GVa1p96Z_Wq7iASbtkC0PUCIhfqr1ztbiqPGMu2S7EbF7xY1YiiRxb3iqvmkS4J0Co8OI4Bb3FIX8_Y3WzAn3P5iSq-Satu0rJXdfKD8a9_pBZW1Qy2tj41gBYfmKfQmE1Q-uCFFh081fttGqGT2vA2cqY4dHl8wjYwbr8bvBuvgtiydv-EgyUQiDBhy5_4jA07ucZ6PayAshTi_82ZEYL-oCoqzVyTK9744aApw_75sEd1OPRfFLKquO0wVlpYHpJcNr1Lbnd6zIam7LNz-0wSaKMUEUvnVdP-SJITNeyAto_f6ciTQ-Kf3VJSk5RE9E68Kt9WCdpfK3-mPQZZsnBTd0qNWCBqPAQbutiCrV6olPFbmKzBcohj5qERawkUff7uykq2MKj9Ub8-T94fjJRaxA19tsVNOSUrnLG5UhFJevl-nf5LfIikQ0Kr0acoq7SL9wbj1yCAYRO0ZZBCc703C0xRcx60oEPJ9qSHOj0jy5t__y6rH0ODCCb_Yl0w7gaAxX7EVu4yb83Y96Yc7b2sZhVJXBjfW36wyvBXg4q1TP3r60_8UP6uGoFiJP8zwgICj7C4Go5iK9Lv78TdioF-3Tdgb06yrGNwHF6E70mumzYwYhF3uAK2dzcnG3VmejnVDRaj8KYvfF2Jl8y9Spz3272tY3j62F55d2c4XIo-8XVwvbWGAtoIlvu8b8fbPgO12uDmijpr5DoLbAaBIrdBANTwH8riaJPeaXop3dHO9pq0NMOk-GxphtcdJ3tQwWducP1NgUlxnJilH9LAgPoKSVaQMcwLYgC_fCymtE3Ou49DlZ3gWM_d4vDHUi3coiMHtOLBOwhAvoQyizak8C5rsmYE3CjU0Y36I6Q1TZCNi2ZdcffcIJjGZ6Xo24OHIy4CbRiaamVoMIHr0j7LgXEP8wi36IEh0faZhiIv4K3SLn5-n1FtGjrtijbhvGn7ZHgSkIsqStFn1ECS59Rfeb7cNybwce-gDTtZ88Nvee5XOxXP7qWBUWlnIJR7RaCPboH_UhhN6YjzIcyPQHzU6bWMx06nDhm9joQu2Rq-kJc0Wt2zPdyP6Dn67jlvGbCJ_t36ynDcRA5eKcmPheB-UYUkvDmNTl8VWPm7IVvUgCTRETE7DhoGT8BLMmFRXpR-dtGkCLv7D2da7DsKMB7n9tBlfDXbiqoqJaLRImUkwguzGLfRefgrpO77p9Luh5vMCxlm1wOfmKEMvBCRXVYB13CPgiUmrZGDTSt4bfoYI6yhTFSElEPXeMhw2RygWA-3vE92wnH6nNyK1qsphPx2iV0j6o93FbiuiKE-kOpuNZthpKVs97QLd4fWhSfRfa8vwaehsPOaYqIocEWPCSbtNapPRGhaG88TKD1zw-lPQlA_MvwJcLK3MN-jmqaKgeZo6PqBrm94BtZb4vcfD3vMW8CgLxJkW8XwD1Hsjk0vdMhdRbLHUiTbqhhxfGzNQmZdRO2pAntPBAgyweTlCfhpgZb7McK3lhgfUMpiQH2FtLqWj_TqDeAJglfBclfUYyKsTvpr9v3Cl4pZILle5txwvxynFy2jw_J_9Lke_9zRKPNW_G7bhMAWr3bNASUYgjdcrz3xk3IKSw3A1UNzSZPQ3qqi6TJkjL_f3VnRqIizfxgSL-Y4DkW0EBt38gbroV1wv-JSjy_m80?></g></svg>